Pacifico-Regular.ufo
<glyph name="numbersign" format="1">
  <advance width="426"/>
  <unicode hex="0023"/>
  <outline>
    <contour>
      <point x="88" y="-12" type="curve" smooth="yes"/>
      <point x="112" y="-12"/>
      <point x="124" y="0"/>
      <point x="132" y="18" type="curve" smooth="yes"/>
      <point x="155" y="63"/>
      <point x="176" y="107"/>
      <point x="197" y="152" type="curve"/>
      <point x="234" y="152"/>
      <point x="271" y="152"/>
      <point x="308" y="153" type="curve"/>
      <point x="267" y="38"/>
      <point x="266" y="37"/>
      <point x="266" y="21" type="curve" smooth="yes"/>
      <point x="266" y="-3"/>
      <point x="280" y="-11"/>
      <point x="303" y="-11" type="curve" smooth="yes"/>
      <point x="326" y="-11"/>
      <point x="337" y="1"/>
      <point x="344" y="19" type="curve" smooth="yes"/>
      <point x="363" y="63"/>
      <point x="380" y="108"/>
      <point x="397" y="153" type="curve"/>
      <point x="398" y="153" type="line" smooth="yes"/>
      <point x="444" y="153"/>
      <point x="482" y="164"/>
      <point x="482" y="208" type="curve" smooth="yes"/>
      <point x="482" y="224"/>
      <point x="470" y="229"/>
      <point x="454" y="230" type="curve"/>
      <point x="424" y="230" type="line"/>
      <point x="436" y="263"/>
      <point x="447" y="295"/>
      <point x="458" y="328" type="curve"/>
      <point x="518" y="328"/>
      <point x="554" y="338"/>
      <point x="554" y="384" type="curve" smooth="yes"/>
      <point x="554" y="400"/>
      <point x="542" y="405"/>
      <point x="526" y="405" type="curve" smooth="yes"/>
      <point x="483" y="405" type="line"/>
      <point x="494" y="453"/>
      <point x="524" y="501"/>
      <point x="524" y="530" type="curve" smooth="yes"/>
      <point x="524" y="545"/>
      <point x="520" y="559"/>
      <point x="502" y="559" type="curve" smooth="yes"/>
      <point x="427" y="559"/>
      <point x="417" y="462"/>
      <point x="397" y="405" type="curve"/>
      <point x="367" y="405"/>
      <point x="336" y="405"/>
      <point x="306" y="405" type="curve"/>
      <point x="321" y="441"/>
      <point x="357" y="517"/>
      <point x="357" y="528" type="curve" smooth="yes"/>
      <point x="357" y="545"/>
      <point x="354" y="558"/>
      <point x="337" y="558" type="curve" smooth="yes"/>
      <point x="303" y="558"/>
      <point x="277" y="534"/>
      <point x="267" y="509" type="curve" smooth="yes"/>
      <point x="220" y="405" type="line"/>
      <point x="163" y="405"/>
      <point x="119" y="404"/>
      <point x="119" y="365" type="curve" smooth="yes"/>
      <point x="119" y="336"/>
      <point x="138" y="328"/>
      <point x="187" y="328" type="curve"/>
      <point x="142" y="229" type="line"/>
      <point x="91" y="229"/>
      <point x="57" y="226"/>
      <point x="57" y="190" type="curve" smooth="yes"/>
      <point x="57" y="165"/>
      <point x="88" y="154"/>
      <point x="113" y="154" type="curve"/>
      <point x="113" y="154"/>
      <point x="72" y="80"/>
      <point x="59" y="32" type="curve" smooth="yes"/>
      <point x="49" y="-5"/>
      <point x="68" y="-12"/>
    </contour>
    <contour>
      <point x="231" y="229" type="curve"/>
      <point x="246" y="262"/>
      <point x="259" y="295"/>
      <point x="273" y="328" type="curve"/>
      <point x="370" y="328" type="line"/>
      <point x="347" y="262"/>
      <point x="341" y="245"/>
      <point x="335" y="229" type="curve"/>
      <point x="317" y="229"/>
      <point x="300" y="229"/>
    </contour>
  </outline>
</glyph>
<glyph name="ampersand" format="1">
  <advance width="521"/>
  <unicode hex="0026"/>
  <outline>
    <contour>
      <point x="468" y="-82" type="curve" smooth="yes"/>
      <point x="516" y="-82"/>
      <point x="547" y="-58"/>
      <point x="547" y="-45" type="curve" smooth="yes"/>
      <point x="547" y="-24"/>
      <point x="490" y="-10"/>
      <point x="466" y="8" type="curve" smooth="yes"/>
      <point x="452" y="20"/>
      <point x="432" y="38"/>
      <point x="401" y="67" type="curve"/>
      <point x="458" y="98"/>
      <point x="506" y="136"/>
      <point x="506" y="192" type="curve" smooth="yes"/>
      <point x="506" y="224"/>
      <point x="434" y="240"/>
      <point x="434" y="217" type="curve" smooth="yes"/>
      <point x="434" y="169"/>
      <point x="409" y="146"/>
      <point x="362" y="125" type="curve"/>
      <point x="331" y="169"/>
      <point x="287" y="239"/>
      <point x="259" y="295" type="curve"/>
      <point x="315" y="329"/>
      <point x="381" y="380"/>
      <point x="381" y="463" type="curve" smooth="yes"/>
      <point x="381" y="526"/>
      <point x="332" y="564"/>
      <point x="267" y="564" type="curve" smooth="yes"/>
      <point x="188" y="564"/>
      <point x="121" y="503"/>
      <point x="121" y="424" type="curve" smooth="yes"/>
      <point x="121" y="374"/>
      <point x="143" y="327"/>
      <point x="161" y="293" type="curve"/>
      <point x="101" y="261"/>
      <point x="22" y="206"/>
      <point x="22" y="118" type="curve" smooth="yes"/>
      <point x="22" y="33"/>
      <point x="103" y="0"/>
      <point x="191" y="0" type="curve" smooth="yes"/>
      <point x="250" y="0"/>
      <point x="295" y="12"/>
      <point x="328" y="27" type="curve"/>
      <point x="328" y="23"/>
      <point x="351" y="-8"/>
      <point x="403" y="-61" type="curve" smooth="yes"/>
      <point x="421" y="-79"/>
      <point x="447" y="-82"/>
    </contour>
    <contour>
      <point x="193" y="69" type="curve" smooth="yes"/>
      <point x="148" y="69"/>
      <point x="110" y="86"/>
      <point x="110" y="130" type="curve" smooth="yes"/>
      <point x="110" y="186"/>
      <point x="150" y="226"/>
      <point x="183" y="251" type="curve"/>
      <point x="215" y="187"/>
      <point x="245" y="138"/>
      <point x="287" y="86" type="curve"/>
      <point x="262" y="77"/>
      <point x="230" y="69"/>
    </contour>
    <contour>
      <point x="243" y="339" type="curve"/>
      <point x="226" y="369"/>
      <point x="215" y="402"/>
      <point x="215" y="429" type="curve" smooth="yes"/>
      <point x="215" y="465"/>
      <point x="232" y="492"/>
      <point x="271" y="492" type="curve" smooth="yes"/>
      <point x="300" y="492"/>
      <point x="317" y="483"/>
      <point x="317" y="455" type="curve" smooth="yes"/>
      <point x="317" y="400"/>
      <point x="274" y="367"/>
    </contour>
  </outline>
</glyph>
<glyph name="two" format="1">
  <advance width="417"/>
  <unicode hex="0032"/>
  <outline>
    <contour>
      <point x="143" y="0" type="curve" smooth="yes"/>
      <point x="184" y="0"/>
      <point x="216" y="22"/>
      <point x="243" y="45" type="curve"/>
      <point x="267" y="26"/>
      <point x="296" y="0"/>
      <point x="334" y="0" type="curve" smooth="yes"/>
      <point x="379" y="0"/>
      <point x="394" y="41"/>
      <point x="394" y="76" type="curve" smooth="yes"/>
      <point x="394" y="88"/>
      <point x="391" y="97"/>
      <point x="382" y="97" type="curve" smooth="yes"/>
      <point x="370" y="97"/>
      <point x="364" y="78"/>
      <point x="348" y="78" type="curve" smooth="yes"/>
      <point x="324" y="78"/>
      <point x="306" y="84"/>
      <point x="290" y="94" type="curve"/>
      <point x="343" y="153"/>
      <point x="387" y="236"/>
      <point x="388" y="319" type="curve" smooth="yes"/>
      <point x="389" y="459"/>
      <point x="296" y="501"/>
      <point x="223" y="499" type="curve" smooth="yes"/>
      <point x="135" y="495"/>
      <point x="66" y="451"/>
      <point x="66" y="359" type="curve" smooth="yes"/>
      <point x="66" y="315"/>
      <point x="82" y="286"/>
      <point x="121" y="286" type="curve" smooth="yes"/>
      <point x="166" y="286"/>
      <point x="149" y="314"/>
      <point x="141" y="362" type="curve" smooth="yes"/>
      <point x="133" y="406"/>
      <point x="184" y="433"/>
      <point x="225" y="434" type="curve" smooth="yes"/>
      <point x="283" y="435"/>
      <point x="310" y="385"/>
      <point x="308" y="304" type="curve" smooth="yes"/>
      <point x="306" y="249"/>
      <point x="283" y="180"/>
      <point x="237" y="135" type="curve"/>
      <point x="205" y="157"/>
      <point x="168" y="178"/>
      <point x="123" y="178" type="curve" smooth="yes"/>
      <point x="73" y="178"/>
      <point x="41" y="144"/>
      <point x="41" y="94" type="curve" smooth="yes"/>
      <point x="41" y="39"/>
      <point x="88" y="0"/>
    </contour>
    <contour>
      <point x="133" y="62" type="curve" smooth="yes"/>
      <point x="111" y="62"/>
      <point x="100" y="78"/>
      <point x="100" y="92" type="curve" smooth="yes"/>
      <point x="100" y="104"/>
      <point x="107" y="114"/>
      <point x="124" y="114" type="curve" smooth="yes"/>
      <point x="146" y="114"/>
      <point x="179" y="104"/>
      <point x="195" y="93" type="curve"/>
      <point x="176" y="73"/>
      <point x="150" y="62"/>
    </contour>
  </outline>
</glyph>
<glyph name="seven" format="1">
  <advance width="417"/>
  <unicode hex="0037"/>
  <outline>
    <contour>
      <point x="224" y="21" type="curve" smooth="yes"/>
      <point x="254" y="123"/>
      <point x="314" y="256"/>
      <point x="393" y="380" type="curve"/>
      <point x="398" y="390"/>
      <point x="426" y="410"/>
      <point x="426" y="435" type="curve" smooth="yes"/>
      <point x="426" y="452"/>
      <point x="420" y="466"/>
      <point x="403" y="466" type="curve" smooth="yes"/>
      <point x="395" y="466"/>
      <point x="363" y="462"/>
      <point x="349" y="462" type="curve" smooth="yes"/>
      <point x="276" y="462"/>
      <point x="208" y="464"/>
      <point x="143" y="464" type="curve" smooth="yes"/>
      <point x="98" y="464"/>
      <point x="89" y="374"/>
      <point x="146" y="381" type="curve" smooth="yes"/>
      <point x="172" y="384"/>
      <point x="206" y="402"/>
      <point x="255" y="403" type="curve" smooth="yes"/>
      <point x="327" y="404" type="line"/>
      <point x="245" y="280"/>
      <point x="168" y="120"/>
      <point x="144" y="34" type="curve" smooth="yes"/>
      <point x="131" y="-12"/>
      <point x="207" y="-35"/>
    </contour>
  </outline>
</glyph>
<glyph name="C" format="1">
  <advance width="593"/>
  <unicode hex="0043"/>
  <outline>
    <contour>
      <point x="294" y="-94" type="curve" smooth="yes"/>
      <point x="441" y="-102"/>
      <point x="593" y="-20"/>
      <point x="655" y="115" type="curve" smooth="yes"/>
      <point x="666" y="139"/>
      <point x="619" y="164"/>
      <point x="606" y="144" type="curve" smooth="yes"/>
      <point x="546" y="52"/>
      <point x="445" y="-26"/>
      <point x="316" y="-18" type="curve" smooth="yes"/>
      <point x="221" y="-12"/>
      <point x="166" y="56"/>
      <point x="155" y="179" type="curve" smooth="yes"/>
      <point x="134" y="412"/>
      <point x="305" y="611"/>
      <point x="460" y="594" type="curve" smooth="yes"/>
      <point x="509" y="589"/>
      <point x="537" y="562"/>
      <point x="537" y="518" type="curve" smooth="yes"/>
      <point x="537" y="446"/>
      <point x="483" y="402"/>
      <point x="411" y="382" type="curve" smooth="yes"/>
      <point x="375" y="372"/>
      <point x="352" y="366"/>
      <point x="353" y="342" type="curve" smooth="yes"/>
      <point x="354" y="320"/>
      <point x="372" y="309"/>
      <point x="411" y="316" type="curve" smooth="yes"/>
      <point x="527" y="338"/>
      <point x="613" y="417"/>
      <point x="613" y="524" type="curve" smooth="yes"/>
      <point x="613" y="607"/>
      <point x="557" y="664"/>
      <point x="472" y="670" type="curve" smooth="yes"/>
      <point x="259" y="686"/>
      <point x="41" y="475"/>
      <point x="59" y="171" type="curve" smooth="yes"/>
      <point x="70" y="-14"/>
      <point x="186" y="-88"/>
    </contour>
    <contour>
      <point x="295" y="-70" type="move" name="bot"/>
    </contour>
    <contour>
      <point x="462" y="671" type="move" name="top"/>
    </contour>
  </outline>
</glyph>
<glyph name="F" format="1">
  <advance width="518"/>
  <unicode hex="0046"/>
  <outline>
    <contour>
      <point x="131" y="-68" type="curve" smooth="yes"/>
      <point x="293" y="-72"/>
      <point x="329" y="66"/>
      <point x="384" y="256" type="curve"/>
      <point x="424" y="256"/>
      <point x="469" y="263"/>
      <point x="508" y="263" type="curve" smooth="yes"/>
      <point x="522" y="263"/>
      <point x="529" y="279"/>
      <point x="529" y="295" type="curve" smooth="yes"/>
      <point x="529" y="314"/>
      <point x="527" y="328"/>
      <point x="508" y="328" type="curve" smooth="yes"/>
      <point x="398" y="328" type="line"/>
      <point x="432" y="458"/>
      <point x="446" y="544"/>
      <point x="458" y="613" type="curve"/>
      <point x="553" y="624"/>
      <point x="632" y="611"/>
      <point x="742" y="601" type="curve" smooth="yes"/>
      <point x="764" y="599"/>
      <point x="774" y="621"/>
      <point x="774" y="642" type="curve" smooth="yes"/>
      <point x="774" y="700"/>
      <point x="549" y="690"/>
      <point x="490" y="690" type="curve" smooth="yes"/>
      <point x="83" y="690"/>
      <point x="-40" y="432"/>
      <point x="66" y="279" type="curve" smooth="yes"/>
      <point x="89" y="246"/>
      <point x="181" y="249"/>
      <point x="159" y="277" type="curve" smooth="yes"/>
      <point x="61" y="407"/>
      <point x="145" y="579"/>
      <point x="385" y="606" type="curve"/>
      <point x="373" y="562"/>
      <point x="334" y="407"/>
      <point x="312" y="322" type="curve"/>
      <point x="288" y="319"/>
      <point x="238" y="314"/>
      <point x="238" y="284" type="curve" smooth="yes"/>
      <point x="238" y="263"/>
      <point x="260" y="256"/>
      <point x="281" y="256" type="curve" smooth="yes"/>
      <point x="296" y="256" type="line"/>
      <point x="254" y="78"/>
      <point x="211" y="33"/>
      <point x="152" y="25" type="curve" smooth="yes"/>
      <point x="110" y="19"/>
      <point x="82" y="38"/>
      <point x="54" y="52" type="curve" smooth="yes"/>
      <point x="30" y="63"/>
      <point x="-6" y="15"/>
      <point x="6" y="-9" type="curve" smooth="yes"/>
      <point x="24" y="-42"/>
      <point x="85" y="-67"/>
    </contour>
    <contour>
      <point x="462" y="671" type="move" name="top"/>
    </contour>
  </outline>
</glyph>
<glyph name="N" format="1">
  <advance width="606"/>
  <unicode hex="004E"/>
  <outline>
    <contour>
      <point x="81" y="-42" type="curve" smooth="yes"/>
      <point x="121" y="-42"/>
      <point x="127" y="-9"/>
      <point x="140" y="22" type="curve" smooth="yes"/>
      <point x="247" y="287"/>
      <point x="357" y="555"/>
      <point x="492" y="555" type="curve" smooth="yes"/>
      <point x="519" y="555"/>
      <point x="531" y="535"/>
      <point x="531" y="512" type="curve" smooth="yes"/>
      <point x="532" y="441"/>
      <point x="439" y="258"/>
      <point x="411" y="85" type="curve" smooth="yes"/>
      <point x="401" y="19"/>
      <point x="443" y="-31"/>
      <point x="535" y="-31" type="curve" smooth="yes"/>
      <point x="577" y="-31"/>
      <point x="634" y="-4"/>
      <point x="668" y="29" type="curve" smooth="yes"/>
      <point x="720" y="81"/>
      <point x="668" y="122"/>
      <point x="633" y="83" type="curve" smooth="yes"/>
      <point x="578" y="21"/>
      <point x="472" y="20"/>
      <point x="491" y="102" type="curve" smooth="yes"/>
      <point x="529" y="270"/>
      <point x="623" y="444"/>
      <point x="621" y="546" type="curve" smooth="yes"/>
      <point x="620" y="598"/>
      <point x="586" y="637"/>
      <point x="526" y="642" type="curve" smooth="yes"/>
      <point x="358" y="656"/>
      <point x="274" y="480"/>
      <point x="219" y="332" type="curve"/>
      <point x="241" y="418"/>
      <point x="258" y="507"/>
      <point x="258" y="553" type="curve" smooth="yes"/>
      <point x="257" y="609"/>
      <point x="218" y="642"/>
      <point x="170" y="642" type="curve" smooth="yes"/>
      <point x="101" y="642"/>
      <point x="33" y="588"/>
      <point x="-4" y="505" type="curve" smooth="yes"/>
      <point x="-27" y="456"/>
      <point x="47" y="428"/>
      <point x="51" y="438" type="curve" smooth="yes"/>
      <point x="84" y="528"/>
      <point x="121" y="572"/>
      <point x="156" y="571" type="curve" smooth="yes"/>
      <point x="180" y="571"/>
      <point x="180" y="524"/>
      <point x="181" y="514" type="curve" smooth="yes"/>
      <point x="183" y="396"/>
      <point x="82" y="123"/>
      <point x="25" y="-17" type="curve" smooth="yes"/>
      <point x="25" y="-17"/>
      <point x="49" y="-42"/>
    </contour>
    <contour>
      <point x="462" y="671" type="move" name="top"/>
    </contour>
  </outline>
</glyph>
<glyph name="S" format="1">
  <advance width="636"/>
  <unicode hex="0053"/>
  <outline>
    <contour>
      <point x="312" y="-114" type="curve" smooth="yes"/>
      <point x="479" y="-114"/>
      <point x="602" y="-39"/>
      <point x="602" y="87" type="curve" smooth="yes"/>
      <point x="602" y="202"/>
      <point x="522" y="236"/>
      <point x="405" y="302" type="curve" smooth="yes"/>
      <point x="264" y="380"/>
      <point x="229" y="391"/>
      <point x="229" y="459" type="curve" smooth="yes"/>
      <point x="229" y="518"/>
      <point x="320" y="563"/>
      <point x="399" y="563" type="curve" smooth="yes"/>
      <point x="473" y="563"/>
      <point x="538" y="532"/>
      <point x="538" y="479" type="curve" smooth="yes"/>
      <point x="538" y="446"/>
      <point x="524" y="423"/>
      <point x="506" y="404" type="curve" smooth="yes"/>
      <point x="472" y="365"/>
      <point x="529" y="313"/>
      <point x="583" y="370" type="curve" smooth="yes"/>
      <point x="605" y="394"/>
      <point x="625" y="432"/>
      <point x="625" y="479" type="curve" smooth="yes"/>
      <point x="623" y="582"/>
      <point x="521" y="636"/>
      <point x="389" y="632" type="curve" smooth="yes"/>
      <point x="260" y="629"/>
      <point x="128" y="564"/>
      <point x="128" y="451" type="curve" smooth="yes"/>
      <point x="128" y="346"/>
      <point x="209" y="308"/>
      <point x="303" y="252" type="curve" smooth="yes"/>
      <point x="396" y="197"/>
      <point x="501" y="168"/>
      <point x="501" y="80" type="curve" smooth="yes"/>
      <point x="501" y="11"/>
      <point x="447" y="-41"/>
      <point x="317" y="-41" type="curve" smooth="yes"/>
      <point x="206" y="-41"/>
      <point x="137" y="2"/>
      <point x="137" y="83" type="curve" smooth="yes"/>
      <point x="137" y="110"/>
      <point x="151" y="128"/>
      <point x="151" y="151" type="curve" smooth="yes"/>
      <point x="151" y="168"/>
      <point x="139" y="178"/>
      <point x="122" y="178" type="curve" smooth="yes"/>
      <point x="72" y="178"/>
      <point x="41" y="131"/>
      <point x="41" y="83" type="curve" smooth="yes"/>
      <point x="41" y="-51"/>
      <point x="174" y="-114"/>
    </contour>
    <contour>
      <point x="316" y="-89" type="move" name="bot"/>
    </contour>
    <contour>
      <point x="432" y="671" type="move" name="top"/>
    </contour>
  </outline>
</glyph>
<glyph name="T" format="1">
  <advance width="484"/>
  <unicode hex="0054"/>
  <outline>
    <contour>
      <point x="54" y="430" type="curve" smooth="yes"/>
      <point x="83" y="497"/>
      <point x="140" y="567"/>
      <point x="403" y="550" type="curve" smooth="yes"/>
      <point x="502" y="543"/>
      <point x="702" y="533"/>
      <point x="768" y="551" type="curve" smooth="yes"/>
      <point x="798" y="559"/>
      <point x="808" y="577"/>
      <point x="808" y="601" type="curve" smooth="yes"/>
      <point x="807" y="617"/>
      <point x="791" y="627"/>
      <point x="769" y="627" type="curve" smooth="yes"/>
      <point x="586" y="627"/>
      <point x="411" y="652"/>
      <point x="272" y="643" type="curve" smooth="yes"/>
      <point x="133" y="633"/>
      <point x="32" y="588"/>
      <point x="-3" y="447" type="curve" smooth="yes"/>
      <point x="-13" y="408"/>
      <point x="45" y="409"/>
    </contour>
    <contour>
      <point x="304" y="-87" type="curve" smooth="yes"/>
      <point x="335" y="-87"/>
      <point x="354" y="-70"/>
      <point x="359" y="-36" type="curve" smooth="yes"/>
      <point x="366" y="6"/>
      <point x="333" y="170"/>
      <point x="478" y="568" type="curve"/>
      <point x="412" y="573" type="line"/>
      <point x="234" y="213"/>
      <point x="246" y="-10"/>
      <point x="253" y="-41" type="curve" smooth="yes"/>
      <point x="260" y="-67"/>
      <point x="273" y="-87"/>
    </contour>
    <contour>
      <point x="300" y="-104" type="move" name="bot"/>
    </contour>
    <contour>
      <point x="482" y="671" type="move" name="top"/>
    </contour>
  </outline>
</glyph>
<glyph name="V" format="1">
  <advance width="569"/>
  <unicode hex="0056"/>
  <outline>
    <contour>
      <point x="483" y="289" type="curve"/>
      <point x="433" y="192"/>
      <point x="335" y="42"/>
      <point x="260" y="30" type="curve" smooth="yes"/>
      <point x="224" y="23"/>
      <point x="196" y="56"/>
      <point x="196" y="151" type="curve" smooth="yes"/>
      <point x="196" y="347"/>
      <point x="298" y="512"/>
      <point x="307" y="522" type="curve" smooth="yes"/>
      <point x="317" y="537"/>
      <point x="270" y="587"/>
      <point x="225" y="522" type="curve" smooth="yes"/>
      <point x="205" y="493"/>
      <point x="118" y="339"/>
      <point x="118" y="159" type="curve" smooth="yes"/>
      <point x="118" y="30"/>
      <point x="159" y="-38"/>
      <point x="248" y="-37" type="curve"/>
      <point x="365" y="-31"/>
      <point x="460" y="108"/>
      <point x="545" y="259" type="curve"/>
      <point x="688" y="525"/>
      <point x="645" y="689"/>
      <point x="544" y="692" type="curve"/>
      <point x="288" y="693"/>
      <point x="419" y="202"/>
      <point x="781" y="482" type="curve" smooth="yes"/>
      <point x="808" y="503"/>
      <point x="785" y="546"/>
      <point x="754" y="524" type="curve" smooth="yes"/>
      <point x="480" y="328"/>
      <point x="415" y="624"/>
      <point x="528" y="624" type="curve" smooth="yes"/>
      <point x="555" y="624"/>
      <point x="605" y="534"/>
    </contour>
    <contour>
      <point x="37" y="354" type="curve" smooth="yes"/>
      <point x="266" y="497" type="line" smooth="yes"/>
      <point x="289" y="510"/>
      <point x="271" y="559"/>
      <point x="242" y="542" type="curve" smooth="yes"/>
      <point x="15" y="404" type="line" smooth="yes"/>
      <point x="-15" y="386"/>
      <point x="1" y="332"/>
    </contour>
  </outline>
</glyph>
<glyph name="Y" format="1">
  <advance width="564"/>
  <unicode hex="0059"/>
  <outline>
    <contour>
      <point x="229" y="-241" type="curve" smooth="yes"/>
      <point x="229" y="-163"/>
      <point x="478" y="83"/>
      <point x="675" y="221" type="curve" smooth="yes"/>
      <point x="693" y="234"/>
      <point x="673" y="282"/>
      <point x="649" y="266" type="curve" smooth="yes"/>
      <point x="517" y="177"/>
      <point x="160" y="-117"/>
      <point x="160" y="-274" type="curve" smooth="yes"/>
      <point x="160" y="-310"/>
      <point x="183" y="-340"/>
      <point x="225" y="-340" type="curve" smooth="yes"/>
      <point x="354" y="-340"/>
      <point x="410" y="-192"/>
      <point x="488" y="107" type="curve"/>
      <point x="593" y="528" type="line" smooth="yes"/>
      <point x="603" y="570"/>
      <point x="602" y="595"/>
      <point x="556" y="595" type="curve" smooth="yes"/>
      <point x="538" y="595"/>
      <point x="523" y="580"/>
      <point x="516" y="549" type="curve" smooth="yes"/>
      <point x="433" y="209" type="line"/>
      <point x="285" y="19"/>
      <point x="9" y="-11"/>
      <point x="248" y="580" type="curve" smooth="yes"/>
      <point x="257" y="601"/>
      <point x="234" y="606"/>
      <point x="218" y="606" type="curve" smooth="yes"/>
      <point x="191" y="606"/>
      <point x="181" y="589"/>
      <point x="173" y="576" type="curve" smooth="yes"/>
      <point x="-63" y="145"/>
      <point x="146" y="-144"/>
      <point x="417" y="124" type="curve"/>
      <point x="356" y="-128"/>
      <point x="275" y="-269"/>
      <point x="248" y="-269" type="curve" smooth="yes"/>
      <point x="237" y="-269"/>
      <point x="229" y="-262"/>
    </contour>
    <contour>
      <point x="452" y="671" type="move" name="top"/>
    </contour>
  </outline>
</glyph>
<glyph name="f" format="1">
  <advance width="253"/>
  <unicode hex="0066"/>
  <outline>
    <contour>
      <point x="99" y="-241" type="curve" smooth="yes"/>
      <point x="223" y="-233"/>
      <point x="223" y="-125"/>
      <point x="223" y="-44" type="curve" smooth="yes"/>
      <point x="223" y="19"/>
      <point x="201" y="104"/>
      <point x="182" y="146" type="curve"/>
      <point x="251" y="148"/>
      <point x="345" y="155"/>
      <point x="345" y="223" type="curve" smooth="yes"/>
      <point x="345" y="236"/>
      <point x="340" y="247"/>
      <point x="333" y="247" type="curve" smooth="yes"/>
      <point x="331" y="247"/>
      <point x="329" y="246"/>
      <point x="326" y="244" type="curve" smooth="yes"/>
      <point x="279" y="218"/>
      <point x="255" y="201"/>
      <point x="198" y="201" type="curve" smooth="yes"/>
      <point x="185" y="201"/>
      <point x="168" y="203"/>
      <point x="159" y="206" type="curve"/>
      <point x="226" y="285"/>
      <point x="342" y="425"/>
      <point x="342" y="555" type="curve" smooth="yes"/>
      <point x="342" y="603"/>
      <point x="317" y="634"/>
      <point x="274" y="634" type="curve" smooth="yes"/>
      <point x="84" y="634"/>
      <point x="18" y="130"/>
      <point x="18" y="-61" type="curve" smooth="yes"/>
      <point x="18" y="-143"/>
      <point x="26" y="-246"/>
    </contour>
    <contour>
      <point x="110" y="-177" type="curve" smooth="yes"/>
      <point x="93" y="-177"/>
      <point x="92" y="-109"/>
      <point x="92" y="-59" type="curve" smooth="yes"/>
      <point x="92" y="9"/>
      <point x="100" y="110"/>
      <point x="103" y="179" type="curve"/>
      <point x="133" y="130"/>
      <point x="160" y="24"/>
      <point x="160" y="-63" type="curve" smooth="yes"/>
      <point x="160" y="-104"/>
      <point x="159" y="-177"/>
    </contour>
    <contour>
      <point x="119" y="234" type="curve"/>
      <point x="128" y="265"/>
      <point x="183" y="558"/>
      <point x="261" y="558" type="curve" smooth="yes"/>
      <point x="275" y="558"/>
      <point x="278" y="541"/>
      <point x="278" y="522" type="curve" smooth="yes"/>
      <point x="278" y="425"/>
      <point x="144" y="263"/>
    </contour>
  </outline>
</glyph>
<glyph name="h" format="1">
  <advance width="379"/>
  <unicode hex="0068"/>
  <outline>
    <contour>
      <point x="60" y="0" type="curve" smooth="yes"/>
      <point x="93" y="-6"/>
      <point x="101" y="13"/>
      <point x="110" y="39" type="curve" smooth="yes"/>
      <point x="134" y="107"/>
      <point x="202" y="186"/>
      <point x="246" y="219" type="curve" smooth="yes"/>
      <point x="300" y="259"/>
      <point x="220" y="147"/>
      <point x="217" y="63" type="curve" smooth="yes"/>
      <point x="215" y="12"/>
      <point x="249" y="-7"/>
      <point x="289" y="0" type="curve" smooth="yes"/>
      <point x="353" y="11"/>
      <point x="407" y="42"/>
      <point x="444" y="67" type="curve" smooth="yes"/>
      <point x="459" y="78"/>
      <point x="465" y="93"/>
      <point x="464" y="106" type="curve" smooth="yes"/>
      <point x="464" y="125"/>
      <point x="452" y="142"/>
      <point x="438" y="142" type="curve" smooth="yes"/>
      <point x="435" y="142"/>
      <point x="432" y="141"/>
      <point x="429" y="139" type="curve"/>
      <point x="419" y="131"/>
      <point x="334" y="66"/>
      <point x="305" y="66" type="curve" smooth="yes"/>
      <point x="299" y="66"/>
      <point x="295" y="68"/>
      <point x="295" y="73" type="curve" smooth="yes"/>
      <point x="293" y="119"/>
      <point x="342" y="207"/>
      <point x="365" y="276" type="curve" smooth="yes"/>
      <point x="375" y="307"/>
      <point x="350" y="330"/>
      <point x="314" y="330" type="curve" smooth="yes"/>
      <point x="284" y="330"/>
      <point x="182" y="276"/>
      <point x="109" y="147" type="curve"/>
      <point x="127" y="247" type="line"/>
      <point x="311" y="412"/>
      <point x="361" y="511"/>
      <point x="370" y="590" type="curve"/>
      <point x="373" y="641"/>
      <point x="343" y="677"/>
      <point x="292" y="677" type="curve" smooth="yes"/>
      <point x="119" y="677"/>
      <point x="42" y="308"/>
      <point x="33" y="114" type="curve" smooth="yes"/>
      <point x="31" y="81"/>
      <point x="24" y="6"/>
    </contour>
    <contour>
      <point x="136" y="323" type="curve"/>
      <point x="150" y="402"/>
      <point x="208" y="609"/>
      <point x="276" y="595" type="curve" smooth="yes"/>
      <point x="287" y="593"/>
      <point x="291" y="586"/>
      <point x="290" y="571" type="curve" smooth="yes"/>
      <point x="287" y="511"/>
      <point x="205" y="396"/>
    </contour>
    <contour>
      <point x="303" y="660" type="move" name="top"/>
    </contour>
  </outline>
</glyph>
<glyph name="l" format="1">
  <advance width="249"/>
  <unicode hex="006C"/>
  <outline>
    <contour>
      <point x="155" y="-3" type="curve" smooth="yes"/>
      <point x="211" y="-3"/>
      <point x="262" y="21"/>
      <point x="317" y="83" type="curve" smooth="yes"/>
      <point x="351" y="120"/>
      <point x="302" y="154"/>
      <point x="282" y="131" type="curve" smooth="yes"/>
      <point x="248" y="92"/>
      <point x="208" y="61"/>
      <point x="171" y="61" type="curve" smooth="yes"/>
      <point x="120" y="61"/>
      <point x="119" y="134"/>
      <point x="127" y="191" type="curve"/>
      <point x="233" y="274"/>
      <point x="354" y="436"/>
      <point x="368" y="580" type="curve" smooth="yes"/>
      <point x="372" y="621"/>
      <point x="346" y="656"/>
      <point x="302" y="656" type="curve" smooth="yes"/>
      <point x="158" y="656"/>
      <point x="68" y="353"/>
      <point x="52" y="180" type="curve"/>
      <point x="43" y="70"/>
      <point x="79" y="-3"/>
    </contour>
    <contour>
      <point x="135" y="264" type="curve"/>
      <point x="151" y="365"/>
      <point x="214" y="574"/>
      <point x="277" y="574" type="curve" smooth="yes"/>
      <point x="290" y="574"/>
      <point x="294" y="568"/>
      <point x="294" y="554" type="curve" smooth="yes"/>
      <point x="292" y="473"/>
      <point x="203" y="340"/>
    </contour>
    <contour>
      <point x="426" y="455" type="move" name="caron.alt"/>
    </contour>
  </outline>
</glyph>
<glyph name="m" format="1">
  <advance width="488"/>
  <unicode hex="006D"/>
  <outline>
    <contour>
      <point x="594" y="96" type="curve" smooth="yes"/>
      <point x="603" y="109"/>
      <point x="570" y="139"/>
      <point x="555" y="124" type="curve" smooth="yes"/>
      <point x="520" y="90"/>
      <point x="488" y="60"/>
      <point x="463" y="54" type="curve" smooth="yes"/>
      <point x="439" y="49"/>
      <point x="427" y="62"/>
      <point x="429" y="84" type="curve" smooth="yes"/>
      <point x="435" y="160"/>
      <point x="486" y="237"/>
      <point x="477" y="299" type="curve" smooth="yes"/>
      <point x="475" y="315"/>
      <point x="457" y="329"/>
      <point x="433" y="329" type="curve" smooth="yes"/>
      <point x="391" y="329"/>
      <point x="333" y="287"/>
      <point x="272" y="126" type="curve"/>
      <point x="291" y="201"/>
      <point x="304" y="270"/>
      <point x="304" y="298" type="curve" smooth="yes"/>
      <point x="304" y="318"/>
      <point x="284" y="328"/>
      <point x="268" y="328" type="curve" smooth="yes"/>
      <point x="232" y="328"/>
      <point x="168" y="274"/>
      <point x="104" y="114" type="curve"/>
      <point x="113" y="191"/>
      <point x="133" y="273"/>
      <point x="141" y="299" type="curve" smooth="yes"/>
      <point x="146" y="319"/>
      <point x="131" y="330"/>
      <point x="116" y="330" type="curve" smooth="yes"/>
      <point x="97" y="330"/>
      <point x="84" y="315"/>
      <point x="78" y="296" type="curve" smooth="yes"/>
      <point x="57" y="234"/>
      <point x="41" y="147"/>
      <point x="39" y="69" type="curve" smooth="yes"/>
      <point x="38" y="31"/>
      <point x="46" y="0"/>
      <point x="78" y="0" type="curve" smooth="yes"/>
      <point x="94" y="0"/>
      <point x="109" y="0"/>
      <point x="137" y="58" type="curve" smooth="yes"/>
      <point x="169" y="123"/>
      <point x="202" y="181"/>
      <point x="246" y="244" type="curve"/>
      <point x="229" y="180"/>
      <point x="211" y="92"/>
      <point x="209" y="61" type="curve" smooth="yes"/>
      <point x="208" y="31"/>
      <point x="211" y="3"/>
      <point x="244" y="0" type="curve" smooth="yes"/>
      <point x="258" y="-2"/>
      <point x="272" y="5"/>
      <point x="285" y="33" type="curve" smooth="yes"/>
      <point x="321" y="113"/>
      <point x="375" y="220"/>
      <point x="410" y="249" type="curve"/>
      <point x="391" y="189"/>
      <point x="369" y="114"/>
      <point x="365" y="76" type="curve" smooth="yes"/>
      <point x="361" y="34"/>
      <point x="385" y="-3"/>
      <point x="435" y="-2" type="curve" smooth="yes"/>
      <point x="477" y="-2"/>
      <point x="549" y="35"/>
    </contour>
    <contour>
      <point x="324" y="339" type="move" name="top"/>
    </contour>
  </outline>
</glyph>
<glyph name="o" format="1">
  <advance width="315"/>
  <unicode hex="006F"/>
  <outline>
    <contour>
      <point x="128" y="-5" type="curve" smooth="yes"/>
      <point x="229" y="-5"/>
      <point x="265" y="75"/>
      <point x="278" y="128" type="curve"/>
      <point x="367" y="152"/>
      <point x="415" y="202"/>
      <point x="444" y="238" type="curve" smooth="yes"/>
      <point x="458" y="255"/>
      <point x="432" y="293"/>
      <point x="417" y="276" type="curve" smooth="yes"/>
      <point x="388" y="243"/>
      <point x="344" y="202"/>
      <point x="288" y="192" type="curve"/>
      <point x="305" y="270"/>
      <point x="258" y="330"/>
      <point x="193" y="330" type="curve" smooth="yes"/>
      <point x="96" y="330"/>
      <point x="14" y="229"/>
      <point x="14" y="121" type="curve" smooth="yes"/>
      <point x="14" y="50"/>
      <point x="60" y="-5"/>
    </contour>
    <contour>
      <point x="143" y="59" type="curve" smooth="yes"/>
      <point x="104" y="59"/>
      <point x="92" y="88"/>
      <point x="92" y="125" type="curve" smooth="yes"/>
      <point x="92" y="184"/>
      <point x="130" y="262"/>
      <point x="184" y="262" type="curve" smooth="yes"/>
      <point x="206" y="262"/>
      <point x="206" y="237"/>
      <point x="206" y="237" type="curve"/>
      <point x="167" y="200"/>
      <point x="172" y="167"/>
      <point x="217" y="146" type="curve"/>
      <point x="213" y="110"/>
      <point x="180" y="59"/>
    </contour>
    <contour>
      <point x="138" y="14" type="move" name="ogonek"/>
    </contour>
    <contour>
      <point x="196" y="339" type="move" name="top"/>
    </contour>
  </outline>
</glyph>
<glyph name="t" format="1">
  <advance width="260"/>
  <unicode hex="0074"/>
  <outline>
    <contour>
      <point x="146" y="-3" type="curve" smooth="yes"/>
      <point x="203" y="-3"/>
      <point x="254" y="21"/>
      <point x="309" y="83" type="curve" smooth="yes"/>
      <point x="343" y="120"/>
      <point x="294" y="154"/>
      <point x="274" y="131" type="curve" smooth="yes"/>
      <point x="239" y="92"/>
      <point x="199" y="61"/>
      <point x="163" y="61" type="curve" smooth="yes"/>
      <point x="111" y="61"/>
      <point x="120" y="180"/>
      <point x="129" y="247" type="curve"/>
      <point x="212" y="305"/>
      <point x="330" y="426"/>
      <point x="340" y="552" type="curve" smooth="yes"/>
      <point x="343" y="588"/>
      <point x="324" y="623"/>
      <point x="276" y="624" type="curve" smooth="yes"/>
      <point x="147" y="625"/>
      <point x="68" y="367"/>
      <point x="52" y="217" type="curve" smooth="yes"/>
      <point x="40" y="106"/>
      <point x="61" y="-3"/>
    </contour>
    <contour>
      <point x="41" y="168" type="curve" smooth="yes"/>
      <point x="75" y="189"/>
      <point x="218" y="246"/>
      <point x="280" y="257" type="curve" smooth="yes"/>
      <point x="310" y="262"/>
      <point x="298" y="312"/>
      <point x="264" y="304" type="curve" smooth="yes"/>
      <point x="213" y="294"/>
      <point x="105" y="260"/>
      <point x="15" y="212" type="curve" smooth="yes"/>
      <point x="-9" y="201"/>
      <point x="9" y="148"/>
    </contour>
    <contour>
      <point x="136" y="303" type="curve"/>
      <point x="150" y="392"/>
      <point x="202" y="541"/>
      <point x="263" y="541" type="curve" smooth="yes"/>
      <point x="270" y="540"/>
      <point x="272" y="534"/>
      <point x="271" y="526" type="curve"/>
      <point x="261" y="436"/>
      <point x="197" y="370"/>
    </contour>
    <contour>
      <point x="359" y="551" type="move" name="caron.alt"/>
    </contour>
  </outline>
</glyph>
<glyph name="v" format="1">
  <advance width="330"/>
  <unicode hex="0076"/>
  <outline>
    <contour>
      <point x="147" y="-3" type="curve" smooth="yes"/>
      <point x="226" y="39"/>
      <point x="298" y="147"/>
      <point x="334" y="290" type="curve" smooth="yes"/>
      <point x="351" y="359"/>
      <point x="221" y="350"/>
      <point x="230" y="181" type="curve"/>
      <point x="191" y="95"/>
      <point x="144" y="65"/>
      <point x="144" y="65" type="curve"/>
      <point x="142" y="65"/>
      <point x="104" y="139"/>
      <point x="137" y="293" type="curve" smooth="yes"/>
      <point x="144" y="328"/>
      <point x="79" y="349"/>
      <point x="64" y="303" type="curve" smooth="yes"/>
      <point x="1" y="95"/>
      <point x="82" y="-38"/>
    </contour>
    <contour>
      <point x="476" y="250" type="curve" smooth="yes"/>
      <point x="490" y="277"/>
      <point x="454" y="315"/>
      <point x="434" y="288" type="curve" smooth="yes"/>
      <point x="392" y="232"/>
      <point x="321" y="198"/>
      <point x="251" y="207" type="curve"/>
      <point x="244" y="153" type="line"/>
      <point x="315" y="126"/>
      <point x="441" y="188"/>
    </contour>
  </outline>
</glyph>
<glyph name="bar" format="1">
  <advance width="426"/>
  <unicode hex="007C"/>
  <outline>
    <contour>
      <point x="176" y="-28" type="line" smooth="yes"/>
      <point x="165" y="-76"/>
      <point x="229" y="-100"/>
      <point x="247" y="-24" type="curve" smooth="yes"/>
      <point x="404" y="645" type="line" smooth="yes"/>
      <point x="417" y="702"/>
      <point x="350" y="715"/>
      <point x="335" y="655" type="curve" smooth="yes"/>
    </contour>
  </outline>
</glyph>
<glyph name="braceright" format="1">
  <advance width="426"/>
  <unicode hex="007D"/>
  <outline>
    <contour>
      <point x="176" y="-110" type="curve"/>
      <point x="270" y="-103"/>
      <point x="293" y="-27"/>
      <point x="303" y="146" type="curve"/>
      <point x="306" y="197"/>
      <point x="322" y="221"/>
      <point x="389" y="216" type="curve" smooth="yes"/>
      <point x="412" y="214"/>
      <point x="425" y="223"/>
      <point x="427" y="248" type="curve" smooth="yes"/>
      <point x="429" y="268"/>
      <point x="420" y="286"/>
      <point x="403" y="288" type="curve" smooth="yes"/>
      <point x="333" y="294"/>
      <point x="324" y="310"/>
      <point x="324" y="347" type="curve" smooth="yes"/>
      <point x="324" y="404"/>
      <point x="338" y="455"/>
      <point x="338" y="504" type="curve" smooth="yes"/>
      <point x="338" y="599"/>
      <point x="292" y="644"/>
      <point x="156" y="628" type="curve" smooth="yes"/>
      <point x="130" y="625"/>
      <point x="133" y="572"/>
      <point x="164" y="574" type="curve" smooth="yes"/>
      <point x="250" y="579"/>
      <point x="261" y="557"/>
      <point x="261" y="497" type="curve" smooth="yes"/>
      <point x="261" y="447"/>
      <point x="246" y="392"/>
      <point x="246" y="338" type="curve" smooth="yes"/>
      <point x="246" y="279"/>
      <point x="301" y="250"/>
      <point x="355" y="244" type="curve"/>
      <point x="356" y="263" type="line"/>
      <point x="293" y="263"/>
      <point x="231" y="238"/>
      <point x="227" y="167" type="curve" smooth="yes"/>
      <point x="218" y="-2"/>
      <point x="209" y="-46"/>
      <point x="165" y="-53" type="curve"/>
      <point x="132" y="-56"/>
      <point x="100" y="-44"/>
      <point x="80" y="-38" type="curve" smooth="yes"/>
      <point x="48" y="-27"/>
      <point x="38" y="-73"/>
      <point x="58" y="-84" type="curve" smooth="yes"/>
      <point x="84" y="-100"/>
      <point x="130" y="-114"/>
    </contour>
  </outline>
</glyph>
<glyph name="sterling" format="1">
  <advance width="514"/>
  <unicode hex="00A3"/>
  <outline>
    <contour>
      <point x="247" y="-10" type="curve" smooth="yes"/>
      <point x="286" y="-10"/>
      <point x="330" y="-5"/>
      <point x="366" y="-0" type="curve" smooth="yes"/>
      <point x="419" y="6"/>
      <point x="502" y="1"/>
      <point x="502" y="58" type="curve" smooth="yes"/>
      <point x="502" y="82"/>
      <point x="473" y="93"/>
      <point x="449" y="93" type="curve" smooth="yes"/>
      <point x="387" y="93"/>
      <point x="346" y="73"/>
      <point x="279" y="73" type="curve"/>
      <point x="276" y="76"/>
      <point x="297" y="192"/>
      <point x="305" y="263" type="curve"/>
      <point x="391" y="263" type="line" smooth="yes"/>
      <point x="420" y="263"/>
      <point x="445" y="269"/>
      <point x="445" y="297" type="curve" smooth="yes"/>
      <point x="445" y="328"/>
      <point x="421" y="339"/>
      <point x="391" y="339" type="curve" smooth="yes"/>
      <point x="309" y="339" type="line"/>
      <point x="309" y="427"/>
      <point x="332" y="502"/>
      <point x="418" y="502" type="curve" smooth="yes"/>
      <point x="452" y="502"/>
      <point x="472" y="497"/>
      <point x="472" y="463" type="curve" smooth="yes"/>
      <point x="472" y="445"/>
      <point x="489" y="433"/>
      <point x="508" y="433" type="curve" smooth="yes"/>
      <point x="532" y="433"/>
      <point x="544" y="453"/>
      <point x="544" y="478" type="curve" smooth="yes"/>
      <point x="544" y="554"/>
      <point x="493" y="586"/>
      <point x="418" y="586" type="curve" smooth="yes"/>
      <point x="282" y="586"/>
      <point x="222" y="479"/>
      <point x="222" y="339" type="curve"/>
      <point x="183" y="339" type="line" smooth="yes"/>
      <point x="155" y="339"/>
      <point x="139" y="327"/>
      <point x="139" y="300" type="curve" smooth="yes"/>
      <point x="139" y="279"/>
      <point x="152" y="263"/>
      <point x="175" y="263" type="curve" smooth="yes"/>
      <point x="215" y="263" type="line"/>
      <point x="210" y="208"/>
      <point x="192" y="152"/>
      <point x="187" y="100" type="curve"/>
      <point x="182" y="85"/>
      <point x="176" y="64"/>
      <point x="176" y="46" type="curve" smooth="yes"/>
      <point x="176" y="5"/>
      <point x="204" y="-10"/>
    </contour>
  </outline>
</glyph>
<glyph name="registered" format="1">
  <advance width="623"/>
  <unicode hex="00AE"/>
  <outline>
    <contour>
      <point x="332" y="136" type="curve" smooth="yes"/>
      <point x="337" y="98"/>
      <point x="400" y="100"/>
      <point x="394" y="142" type="curve" smooth="yes"/>
      <point x="373" y="295" type="line"/>
      <point x="335" y="267" type="line"/>
      <point x="405" y="273"/>
      <point x="450" y="308"/>
      <point x="450" y="361" type="curve" smooth="yes"/>
      <point x="450" y="412"/>
      <point x="407" y="431"/>
      <point x="355" y="431" type="curve" smooth="yes"/>
      <point x="334" y="431"/>
      <point x="290" y="427"/>
      <point x="270" y="427" type="curve"/>
      <point x="234" y="313" type="line"/>
      <point x="229" y="313"/>
      <point x="222" y="315"/>
      <point x="216" y="315" type="curve" smooth="yes"/>
      <point x="209" y="315"/>
      <point x="206" y="307"/>
      <point x="206" y="301" type="curve" smooth="yes"/>
      <point x="206" y="290"/>
      <point x="215" y="285"/>
      <point x="225" y="279" type="curve"/>
      <point x="193" y="162" type="line" smooth="yes"/>
      <point x="183" y="125"/>
      <point x="239" y="103"/>
      <point x="251" y="151" type="curve" smooth="yes"/>
      <point x="281" y="267" type="line"/>
      <point x="315" y="267" type="line"/>
      <point x="318" y="257"/>
      <point x="326" y="177"/>
    </contour>
    <contour>
      <point x="312" y="69" type="curve" smooth="yes"/>
      <point x="194" y="69"/>
      <point x="107" y="128"/>
      <point x="107" y="248" type="curve" smooth="yes"/>
      <point x="107" y="375"/>
      <point x="190" y="484"/>
      <point x="372" y="477" type="curve" smooth="yes"/>
      <point x="473" y="473"/>
      <point x="530" y="417"/>
      <point x="530" y="318" type="curve" smooth="yes"/>
      <point x="530" y="183"/>
      <point x="449" y="69"/>
    </contour>
    <contour>
      <point x="314" y="13" type="curve" smooth="yes"/>
      <point x="447" y="13"/>
      <point x="597" y="114"/>
      <point x="597" y="315" type="curve" smooth="yes"/>
      <point x="597" y="455"/>
      <point x="505" y="526"/>
      <point x="364" y="532" type="curve" smooth="yes"/>
      <point x="186" y="540"/>
      <point x="46" y="429"/>
      <point x="46" y="248" type="curve" smooth="yes"/>
      <point x="46" y="100"/>
      <point x="158" y="13"/>
    </contour>
    <contour>
      <point x="294" y="308" type="curve"/>
      <point x="315" y="385" type="line"/>
      <point x="335" y="385" type="line" smooth="yes"/>
      <point x="376" y="385"/>
      <point x="394" y="377"/>
      <point x="394" y="354" type="curve" smooth="yes"/>
      <point x="394" y="319"/>
      <point x="329" y="304"/>
    </contour>
  </outline>
</glyph>
<glyph name="macron" format="1">
  <advance width="205"/>
  <unicode hex="00AF"/>
  <outline>
    <contour>
      <point x="-7" y="468" type="curve" smooth="yes"/>
      <point x="38" y="478"/>
      <point x="69" y="489"/>
      <point x="200" y="480" type="curve" smooth="yes"/>
      <point x="223" y="479"/>
      <point x="231" y="485"/>
      <point x="234" y="499" type="curve" smooth="yes"/>
      <point x="238" y="520"/>
      <point x="224" y="528"/>
      <point x="208" y="532" type="curve"/>
      <point x="94" y="548"/>
      <point x="32" y="547"/>
      <point x="-1" y="537" type="curve" smooth="yes"/>
      <point x="-35" y="527"/>
      <point x="-40" y="510"/>
      <point x="-39" y="495" type="curve" smooth="yes"/>
      <point x="-39" y="478"/>
      <point x="-26" y="463"/>
    </contour>
    <contour>
      <point x="76" y="339" type="move" name="_top"/>
    </contour>
  </outline>
</glyph>
<glyph name="threequarters" format="1">
  <advance width="1083"/>
  <unicode hex="00BE"/>
  <outline>
    <contour>
      <point x="817" y="-20" type="curve" smooth="yes"/>
      <point x="837" y="-20"/>
      <point x="850" y="-16"/>
      <point x="858" y="21" type="curve" smooth="yes"/>
      <point x="870" y="69" type="line"/>
      <point x="933" y="70" type="line" smooth="yes"/>
      <point x="969" y="71"/>
      <point x="976" y="136"/>
      <point x="945" y="135" type="curve" smooth="yes"/>
      <point x="884" y="135" type="line"/>
      <point x="892" y="167"/>
      <point x="917" y="268"/>
      <point x="923" y="297" type="curve" smooth="yes"/>
      <point x="927" y="315"/>
      <point x="911" y="321"/>
      <point x="894" y="321" type="curve" smooth="yes"/>
      <point x="869" y="321"/>
      <point x="857" y="309"/>
      <point x="851" y="288" type="curve" smooth="yes"/>
      <point x="844" y="263"/>
      <point x="815" y="157"/>
      <point x="811" y="136" type="curve"/>
      <point x="721" y="136" type="line"/>
      <point x="753" y="239"/>
      <point x="796" y="368"/>
      <point x="820" y="449" type="curve" smooth="yes"/>
      <point x="830" y="484"/>
      <point x="762" y="496"/>
      <point x="750" y="459" type="curve" smooth="yes"/>
      <point x="723" y="382"/>
      <point x="664" y="207"/>
      <point x="641" y="130" type="curve" smooth="yes"/>
      <point x="626" y="81"/>
      <point x="638" y="68"/>
      <point x="666" y="68" type="curve" smooth="yes"/>
      <point x="795" y="68" type="line"/>
      <point x="786" y="22" type="line" smooth="yes"/>
      <point x="780" y="-4"/>
      <point x="786" y="-20"/>
    </contour>
    <contour>
      <point x="406" y="-16" type="curve" smooth="yes"/>
      <point x="660" y="571" type="line" smooth="yes"/>
      <point x="677" y="611"/>
      <point x="620" y="649"/>
      <point x="595" y="593" type="curve" smooth="yes"/>
      <point x="341" y="20" type="line" smooth="yes"/>
      <point x="319" y="-30"/>
      <point x="389" y="-58"/>
    </contour>
    <contour>
      <point x="358" y="348" type="curve" smooth="yes"/>
      <point x="358" y="409"/>
      <point x="325" y="458"/>
      <point x="256" y="476" type="curve"/>
      <point x="320" y="489"/>
      <point x="351" y="545"/>
      <point x="351" y="592" type="curve" smooth="yes"/>
      <point x="351" y="655"/>
      <point x="302" y="687"/>
      <point x="243" y="694" type="curve" smooth="yes"/>
      <point x="179" y="702"/>
      <point x="115" y="677"/>
      <point x="79" y="632" type="curve" smooth="yes"/>
      <point x="62" y="611"/>
      <point x="97" y="562"/>
      <point x="131" y="599" type="curve" smooth="yes"/>
      <point x="175" y="646"/>
      <point x="267" y="643"/>
      <point x="267" y="576" type="curve" smooth="yes"/>
      <point x="267" y="523"/>
      <point x="216" y="496"/>
      <point x="155" y="496" type="curve" smooth="yes"/>
      <point x="127" y="496"/>
      <point x="115" y="486"/>
      <point x="115" y="468" type="curve" smooth="yes"/>
      <point x="115" y="449"/>
      <point x="125" y="438"/>
      <point x="141" y="438" type="curve" smooth="yes"/>
      <point x="216" y="438"/>
      <point x="280" y="409"/>
      <point x="280" y="349" type="curve" smooth="yes"/>
      <point x="280" y="215"/>
      <point x="133" y="245"/>
      <point x="92" y="305" type="curve" smooth="yes"/>
      <point x="63" y="346"/>
      <point x="3" y="304"/>
      <point x="27" y="266" type="curve" smooth="yes"/>
      <point x="59" y="217"/>
      <point x="118" y="187"/>
      <point x="191" y="187" type="curve" smooth="yes"/>
      <point x="275" y="186"/>
      <point x="358" y="231"/>
    </contour>
  </outline>
</glyph>
<glyph name="questiondown" format="1">
  <advance width="441"/>
  <unicode hex="00BF"/>
  <outline>
    <contour>
      <point x="264" y="0" type="curve" smooth="yes"/>
      <point x="312" y="0"/>
      <point x="392" y="30"/>
      <point x="392" y="79" type="curve" smooth="yes"/>
      <point x="392" y="100"/>
      <point x="378" y="119"/>
      <point x="358" y="119" type="curve" smooth="yes"/>
      <point x="348" y="119"/>
      <point x="340" y="113"/>
      <point x="335" y="106" type="curve" smooth="yes"/>
      <point x="321" y="88"/>
      <point x="295" y="65"/>
      <point x="264" y="65" type="curve" smooth="yes"/>
      <point x="218" y="65"/>
      <point x="209" y="119"/>
      <point x="224" y="157" type="curve" smooth="yes"/>
      <point x="254" y="236"/>
      <point x="354" y="249"/>
      <point x="354" y="359" type="curve" smooth="yes"/>
      <point x="354" y="375"/>
      <point x="339" y="381"/>
      <point x="324" y="381" type="curve" smooth="yes"/>
      <point x="305" y="381"/>
      <point x="295" y="365"/>
      <point x="289" y="348" type="curve" smooth="yes"/>
      <point x="283" y="334"/>
      <point x="273" y="323"/>
      <point x="263" y="313" type="curve" smooth="yes"/>
      <point x="207" y="258"/>
      <point x="135" y="229"/>
      <point x="135" y="116" type="curve" smooth="yes"/>
      <point x="135" y="43"/>
      <point x="192" y="0"/>
    </contour>
    <contour>
      <point x="334" y="427" type="curve" smooth="yes"/>
      <point x="375" y="427"/>
      <point x="397" y="453"/>
      <point x="397" y="492" type="curve" smooth="yes"/>
      <point x="397" y="529"/>
      <point x="377" y="547"/>
      <point x="341" y="547" type="curve" smooth="yes"/>
      <point x="300" y="547"/>
      <point x="276" y="521"/>
      <point x="276" y="482" type="curve" smooth="yes"/>
      <point x="276" y="446"/>
      <point x="297" y="427"/>
    </contour>
  </outline>
</glyph>
<glyph name="IJ" format="1">
  <advance width="842"/>
  <unicode hex="0132"/>
  <outline>
    <contour>
      <point x="540" y="-174" type="curve" smooth="yes"/>
      <point x="690" y="-174"/>
      <point x="817" y="267"/>
      <point x="898" y="585" type="curve"/>
      <point x="921" y="584"/>
      <point x="938" y="584"/>
      <point x="950" y="585" type="curve" smooth="yes"/>
      <point x="987" y="586"/>
      <point x="988" y="590"/>
      <point x="1021" y="598" type="curve" smooth="yes"/>
      <point x="1029" y="600"/>
      <point x="1059" y="661"/>
      <point x="1009" y="661" type="curve" smooth="yes"/>
      <point x="983" y="661"/>
      <point x="951" y="661"/>
      <point x="915" y="662" type="curve"/>
      <point x="911" y="671"/>
      <point x="900" y="679"/>
      <point x="880" y="679" type="curve" smooth="yes"/>
      <point x="863" y="679"/>
      <point x="852" y="676"/>
      <point x="845" y="663" type="curve"/>
      <point x="722" y="664"/>
      <point x="578" y="665"/>
      <point x="476" y="664" type="curve" smooth="yes"/>
      <point x="446" y="663"/>
      <point x="195" y="657"/>
      <point x="169" y="655" type="curve" smooth="yes"/>
      <point x="144" y="652"/>
      <point x="134" y="598"/>
      <point x="147" y="584" type="curve" smooth="yes"/>
      <point x="161" y="568"/>
      <point x="242" y="576"/>
      <point x="275" y="576" type="curve"/>
      <point x="216" y="445"/>
      <point x="159" y="227"/>
      <point x="134" y="55" type="curve"/>
      <point x="103" y="54"/>
      <point x="9" y="45"/>
      <point x="2" y="19" type="curve" smooth="yes"/>
      <point x="-5" y="-5"/>
      <point x="5" y="-24"/>
      <point x="21" y="-29" type="curve" smooth="yes"/>
      <point x="36" y="-34"/>
      <point x="194" y="-8"/>
      <point x="296" y="-4" type="curve" smooth="yes"/>
      <point x="343" y="-2"/>
      <point x="345" y="49"/>
      <point x="325" y="57" type="curve" smooth="yes"/>
      <point x="304" y="64"/>
      <point x="223" y="60"/>
      <point x="211" y="58" type="curve"/>
      <point x="222" y="176"/>
      <point x="339" y="553"/>
      <point x="352" y="578" type="curve"/>
      <point x="369" y="580"/>
      <point x="399" y="581"/>
      <point x="426" y="583" type="curve"/>
      <point x="503" y="587"/>
      <point x="656" y="590"/>
      <point x="680" y="590" type="curve" smooth="yes"/>
      <point x="823" y="586" type="line"/>
      <point x="776" y="390"/>
      <point x="634" y="-88"/>
      <point x="527" y="-88" type="curve" smooth="yes"/>
      <point x="473" y="-88"/>
      <point x="463" y="-5"/>
      <point x="457" y="86" type="curve" smooth="yes"/>
      <point x="454" y="133"/>
      <point x="394" y="137"/>
      <point x="396" y="78" type="curve" smooth="yes"/>
      <point x="400" y="-64"/>
      <point x="435" y="-174"/>
    </contour>
    <contour>
      <point x="171" y="0" type="move" name="ogonek"/>
    </contour>
  </outline>
</glyph>
<glyph name="uni01C8" format="1">
  <advance width="843"/>
  <unicode hex="01C8"/>
  <outline>
    <contour>
      <point x="954" y="226"/>
      <point x="948" y="236"/>
      <point x="934" y="229" type="curve"/>
      <point x="872" y="203"/>
      <point x="833" y="198"/>
      <point x="757" y="186" type="curve"/>
      <point x="781" y="241" type="line" smooth="yes"/>
      <point x="789" y="258"/>
      <point x="801" y="284"/>
      <point x="803" y="306" type="curve" smooth="yes"/>
      <point x="804" y="318"/>
      <point x="797" y="328"/>
      <point x="783" y="328" type="curve" smooth="yes"/>
      <point x="737" y="328"/>
      <point x="724" y="315"/>
      <point x="709" y="280" type="curve" smooth="yes"/>
      <point x="676" y="202"/>
      <point x="642" y="95"/>
      <point x="633" y="0" type="curve" smooth="yes"/>
      <point x="629" y="-42"/>
      <point x="626" y="-91"/>
      <point x="632" y="-131" type="curve"/>
      <point x="563" y="-110"/>
      <point x="487" y="-50"/>
      <point x="409" y="5" type="curve"/>
      <point x="470" y="93"/>
      <point x="488" y="222"/>
      <point x="482" y="348" type="curve"/>
      <point x="889" y="346"/>
      <point x="843" y="735"/>
      <point x="608" y="705" type="curve" smooth="yes"/>
      <point x="500" y="691"/>
      <point x="397" y="617"/>
      <point x="396" y="419" type="curve"/>
      <point x="362" y="424"/>
      <point x="325" y="431"/>
      <point x="285" y="442" type="curve" smooth="yes"/>
      <point x="246" y="453"/>
      <point x="227" y="389"/>
      <point x="262" y="380" type="curve" smooth="yes"/>
      <point x="310" y="368"/>
      <point x="355" y="359"/>
      <point x="396" y="354" type="curve"/>
      <point x="396" y="239"/>
      <point x="393" y="123"/>
      <point x="349" y="46" type="curve"/>
      <point x="287" y="87"/>
      <point x="225" y="118"/>
      <point x="165" y="118" type="curve" smooth="yes"/>
      <point x="14" y="118"/>
      <point x="13" y="-104"/>
      <point x="189" y="-104" type="curve" smooth="yes"/>
      <point x="265" y="-104"/>
      <point x="323" y="-81"/>
      <point x="367" y="-43" type="curve"/>
      <point x="493" y="-125"/>
      <point x="630" y="-231"/>
      <point x="720" y="-206" type="curve"/>
      <point x="793" y="-192"/>
      <point x="823" y="-90"/>
      <point x="829" y="-11" type="curve" smooth="yes"/>
      <point x="834" y="44"/>
      <point x="823" y="91"/>
      <point x="811" y="131" type="curve"/>
      <point x="872" y="132"/>
      <point x="954" y="146"/>
      <point x="954" y="211" type="curve" smooth="yes"/>
    </contour>
    <contour>
      <point x="756" y="660"/>
      <point x="778" y="411"/>
      <point x="483" y="412" type="curve"/>
      <point x="490" y="550"/>
      <point x="522" y="608"/>
      <point x="597" y="625" type="curve" smooth="yes"/>
    </contour>
    <contour>
      <point x="893" y="394"/>
      <point x="916" y="415"/>
      <point x="916" y="450" type="curve" smooth="yes"/>
      <point x="916" y="481"/>
      <point x="895" y="495"/>
      <point x="866" y="495" type="curve" smooth="yes"/>
      <point x="831" y="495"/>
      <point x="804" y="475"/>
      <point x="804" y="441" type="curve" smooth="yes"/>
      <point x="804" y="410"/>
      <point x="824" y="394"/>
      <point x="858" y="394" type="curve" smooth="yes"/>
    </contour>
    <contour>
      <point x="711" y="14"/>
      <point x="727" y="84"/>
      <point x="745" y="153" type="curve"/>
      <point x="755" y="102"/>
      <point x="768" y="50"/>
      <point x="764" y="-11" type="curve" smooth="yes"/>
      <point x="759" y="-63"/>
      <point x="751" y="-131"/>
      <point x="720" y="-131" type="curve" smooth="yes"/>
      <point x="702" y="-131"/>
      <point x="702" y="-88"/>
      <point x="704" y="-65" type="curve" smooth="yes"/>
    </contour>
    <contour>
      <point x="116" y="-41"/>
      <point x="114" y="46"/>
      <point x="167" y="46" type="curve" smooth="yes"/>
      <point x="206" y="46"/>
      <point x="254" y="25"/>
      <point x="307" y="-5" type="curve"/>
      <point x="278" y="-28"/>
      <point x="239" y="-41"/>
      <point x="189" y="-41" type="curve" smooth="yes"/>
    </contour>
    <contour>
      <point x="409" y="-154" type="move" name="bot"/>
    </contour>
    <contour>
      <point x="582" y="671" type="move" name="top"/>
    </contour>
  </outline>
</glyph>
<glyph name="uni01CB" format="1">
  <advance width="827"/>
  <unicode hex="01CB"/>
  <outline>
    <contour>
      <point x="938" y="226"/>
      <point x="932" y="236"/>
      <point x="918" y="229" type="curve"/>
      <point x="856" y="203"/>
      <point x="817" y="198"/>
      <point x="741" y="186" type="curve"/>
      <point x="765" y="241" type="line" smooth="yes"/>
      <point x="773" y="258"/>
      <point x="785" y="284"/>
      <point x="787" y="306" type="curve" smooth="yes"/>
      <point x="788" y="318"/>
      <point x="781" y="328"/>
      <point x="767" y="328" type="curve" smooth="yes"/>
      <point x="721" y="328"/>
      <point x="708" y="315"/>
      <point x="693" y="280" type="curve" smooth="yes"/>
      <point x="669" y="223"/>
      <point x="644" y="151"/>
      <point x="629" y="79" type="curve"/>
      <point x="573" y="21"/>
      <point x="472" y="22"/>
      <point x="491" y="102" type="curve" smooth="yes"/>
      <point x="529" y="270"/>
      <point x="623" y="444"/>
      <point x="621" y="546" type="curve" smooth="yes"/>
      <point x="620" y="598"/>
      <point x="586" y="637"/>
      <point x="526" y="642" type="curve" smooth="yes"/>
      <point x="358" y="656"/>
      <point x="274" y="480"/>
      <point x="219" y="332" type="curve"/>
      <point x="241" y="418"/>
      <point x="258" y="507"/>
      <point x="258" y="553" type="curve"/>
      <point x="257" y="609"/>
      <point x="218" y="642"/>
      <point x="170" y="642" type="curve" smooth="yes"/>
      <point x="101" y="642"/>
      <point x="33" y="588"/>
      <point x="-4" y="505" type="curve" smooth="yes"/>
      <point x="-27" y="456"/>
      <point x="47" y="428"/>
      <point x="51" y="438" type="curve" smooth="yes"/>
      <point x="84" y="528"/>
      <point x="121" y="572"/>
      <point x="156" y="571" type="curve" smooth="yes"/>
      <point x="180" y="571"/>
      <point x="180" y="524"/>
      <point x="181" y="514" type="curve"/>
      <point x="183" y="396"/>
      <point x="82" y="123"/>
      <point x="25" y="-17" type="curve"/>
      <point x="25" y="-17"/>
      <point x="49" y="-42"/>
      <point x="81" y="-42" type="curve" smooth="yes"/>
      <point x="121" y="-42"/>
      <point x="127" y="-9"/>
      <point x="140" y="22" type="curve" smooth="yes"/>
      <point x="247" y="287"/>
      <point x="357" y="555"/>
      <point x="492" y="555" type="curve" smooth="yes"/>
      <point x="519" y="555"/>
      <point x="531" y="535"/>
      <point x="531" y="512" type="curve" smooth="yes"/>
      <point x="532" y="441"/>
      <point x="439" y="258"/>
      <point x="411" y="85" type="curve" smooth="yes"/>
      <point x="401" y="19"/>
      <point x="443" y="-31"/>
      <point x="535" y="-31" type="curve" smooth="yes"/>
      <point x="560" y="-31"/>
      <point x="589" y="-22"/>
      <point x="616" y="-8" type="curve"/>
      <point x="609" y="-95"/>
      <point x="605" y="-208"/>
      <point x="686" y="-208" type="curve" smooth="yes"/>
      <point x="772" y="-208"/>
      <point x="806" y="-96"/>
      <point x="813" y="-11" type="curve" smooth="yes"/>
      <point x="818" y="44"/>
      <point x="807" y="91"/>
      <point x="795" y="131" type="curve"/>
      <point x="856" y="132"/>
      <point x="938" y="146"/>
      <point x="938" y="211" type="curve" smooth="yes"/>
    </contour>
    <contour>
      <point x="827" y="394"/>
      <point x="850" y="415"/>
      <point x="850" y="450" type="curve" smooth="yes"/>
      <point x="850" y="481"/>
      <point x="829" y="495"/>
      <point x="800" y="495" type="curve" smooth="yes"/>
      <point x="765" y="495"/>
      <point x="738" y="475"/>
      <point x="738" y="441" type="curve" smooth="yes"/>
      <point x="738" y="410"/>
      <point x="758" y="394"/>
      <point x="792" y="394" type="curve" smooth="yes"/>
    </contour>
    <contour>
      <point x="743" y="-63"/>
      <point x="735" y="-131"/>
      <point x="704" y="-131" type="curve" smooth="yes"/>
      <point x="686" y="-131"/>
      <point x="686" y="-88"/>
      <point x="688" y="-65" type="curve" smooth="yes"/>
      <point x="695" y="14"/>
      <point x="711" y="84"/>
      <point x="729" y="153" type="curve"/>
      <point x="739" y="102"/>
      <point x="752" y="50"/>
      <point x="748" y="-11" type="curve" smooth="yes"/>
    </contour>
  </outline>
</glyph>
<glyph name="circumflex" format="1">
  <advance width="295"/>
  <unicode hex="02C6"/>
  <outline>
    <contour>
      <point x="228" y="443" type="line" smooth="yes"/>
      <point x="238" y="410"/>
      <point x="311" y="406"/>
      <point x="293" y="467" type="curve" smooth="yes"/>
      <point x="271" y="545" type="line" smooth="yes"/>
      <point x="253" y="603"/>
      <point x="249" y="641"/>
      <point x="202" y="641" type="curve" smooth="yes"/>
      <point x="143" y="641"/>
      <point x="131" y="609"/>
      <point x="95" y="557" type="curve" smooth="yes"/>
      <point x="47" y="486" type="line" smooth="yes"/>
      <point x="41" y="477"/>
      <point x="40" y="470"/>
      <point x="40" y="462" type="curve" smooth="yes"/>
      <point x="41" y="433"/>
      <point x="89" y="430"/>
      <point x="107" y="456" type="curve" smooth="yes"/>
      <point x="190" y="579" type="line"/>
    </contour>
    <contour>
      <point x="147" y="339" type="move" name="_top"/>
    </contour>
  </outline>
</glyph>
<glyph name="ring" format="1">
  <advance width="251"/>
  <unicode hex="02DA"/>
  <outline>
    <contour>
      <point x="108" y="441" type="curve" smooth="yes"/>
      <point x="88" y="447"/>
      <point x="79" y="464"/>
      <point x="84" y="483" type="curve" smooth="yes"/>
      <point x="93" y="514"/>
      <point x="125" y="527"/>
      <point x="158" y="518" type="curve" smooth="yes"/>
      <point x="176" y="512"/>
      <point x="182" y="498"/>
      <point x="177" y="481" type="curve" smooth="yes"/>
      <point x="169" y="450"/>
      <point x="139" y="433"/>
    </contour>
    <contour>
      <point x="95" y="397" type="curve" smooth="yes"/>
      <point x="155" y="380"/>
      <point x="209" y="410"/>
      <point x="226" y="471" type="curve" smooth="yes"/>
      <point x="238" y="512"/>
      <point x="218" y="547"/>
      <point x="178" y="559" type="curve" smooth="yes"/>
      <point x="121" y="575"/>
      <point x="57" y="554"/>
      <point x="41" y="497" type="curve" smooth="yes"/>
      <point x="27" y="449"/>
      <point x="48" y="411"/>
    </contour>
    <contour>
      <point x="116" y="339" type="move" name="_top"/>
    </contour>
  </outline>
</glyph>
<glyph name="tilde" format="1">
  <advance width="328"/>
  <unicode hex="02DC"/>
  <outline>
    <contour>
      <point x="220" y="388" type="curve" smooth="yes"/>
      <point x="260" y="388"/>
      <point x="304" y="438"/>
      <point x="304" y="477" type="curve" smooth="yes"/>
      <point x="304" y="493"/>
      <point x="291" y="502"/>
      <point x="276" y="502" type="curve" smooth="yes"/>
      <point x="242" y="502"/>
      <point x="230" y="465"/>
      <point x="214" y="446" type="curve"/>
      <point x="197" y="460"/>
      <point x="183" y="471"/>
      <point x="172" y="480" type="curve" smooth="yes"/>
      <point x="152" y="496"/>
      <point x="136" y="513"/>
      <point x="105" y="513" type="curve" smooth="yes"/>
      <point x="64" y="513"/>
      <point x="21" y="463"/>
      <point x="21" y="424" type="curve" smooth="yes"/>
      <point x="21" y="408"/>
      <point x="34" y="399"/>
      <point x="49" y="399" type="curve" smooth="yes"/>
      <point x="81" y="399"/>
      <point x="96" y="436"/>
      <point x="111" y="455" type="curve"/>
      <point x="128" y="441"/>
      <point x="142" y="430"/>
      <point x="153" y="421" type="curve" smooth="yes"/>
      <point x="173" y="405"/>
      <point x="189" y="388"/>
    </contour>
    <contour>
      <point x="146" y="339" type="move" name="_top"/>
    </contour>
  </outline>
</glyph>
<glyph name="hungarumlaut" format="1">
  <advance width="350"/>
  <unicode hex="02DD"/>
  <outline>
    <contour>
      <point x="86" y="417" type="curve" smooth="yes"/>
      <point x="199" y="571" type="line" smooth="yes"/>
      <point x="241" y="627"/>
      <point x="161" y="678"/>
      <point x="131" y="616" type="curve" smooth="yes"/>
      <point x="48" y="441" type="line" smooth="yes"/>
      <point x="35" y="415"/>
      <point x="70" y="395"/>
    </contour>
    <contour>
      <point x="237" y="407" type="curve" smooth="yes"/>
      <point x="384" y="571" type="line" smooth="yes"/>
      <point x="430" y="622"/>
      <point x="353" y="675"/>
      <point x="316" y="616" type="curve" smooth="yes"/>
      <point x="199" y="431" type="line" smooth="yes"/>
      <point x="183" y="406"/>
      <point x="218" y="387"/>
    </contour>
    <contour>
      <point x="116" y="339" type="move" name="_top"/>
    </contour>
  </outline>
</glyph>
<glyph name="uni0358" format="1">
  <advance width="205"/>
  <unicode hex="0358"/>
  <outline>
    <contour>
      <point x="106" y="446" type="curve" smooth="yes"/>
      <point x="133" y="446"/>
      <point x="156" y="469"/>
      <point x="156" y="497" type="curve" smooth="yes"/>
      <point x="156" y="520"/>
      <point x="136" y="539"/>
      <point x="111" y="539" type="curve" smooth="yes"/>
      <point x="85" y="539"/>
      <point x="62" y="516"/>
      <point x="62" y="489" type="curve" smooth="yes"/>
      <point x="62" y="465"/>
      <point x="83" y="446"/>
    </contour>
    <contour>
      <point x="98" y="339" type="move" name="_top"/>
    </contour>
  </outline>
</glyph>
<glyph name="Euro" format="1">
  <advance width="634"/>
  <unicode hex="20AC"/>
  <outline>
    <contour>
      <point x="297" y="-65" type="curve" smooth="yes"/>
      <point x="408" y="-74"/>
      <point x="494" y="-8"/>
      <point x="556" y="45" type="curve" smooth="yes"/>
      <point x="564" y="52"/>
      <point x="572" y="62"/>
      <point x="572" y="76" type="curve" smooth="yes"/>
      <point x="572" y="101"/>
      <point x="542" y="123"/>
      <point x="521" y="104" type="curve" smooth="yes"/>
      <point x="472" y="64"/>
      <point x="401" y="21"/>
      <point x="315" y="21" type="curve" smooth="yes"/>
      <point x="229" y="21"/>
      <point x="189" y="74"/>
      <point x="189" y="161" type="curve"/>
      <point x="189" y="175" type="line"/>
      <point x="321" y="175" type="line" smooth="yes"/>
      <point x="349" y="175"/>
      <point x="364" y="188"/>
      <point x="364" y="215" type="curve" smooth="yes"/>
      <point x="364" y="233"/>
      <point x="350" y="241"/>
      <point x="332" y="241" type="curve" smooth="yes"/>
      <point x="199" y="241" type="line"/>
      <point x="203" y="256"/>
      <point x="207" y="270"/>
      <point x="211" y="284" type="curve"/>
      <point x="343" y="284" type="line" smooth="yes"/>
      <point x="371" y="284"/>
      <point x="387" y="297"/>
      <point x="387" y="324" type="curve" smooth="yes"/>
      <point x="387" y="343"/>
      <point x="372" y="350"/>
      <point x="354" y="350" type="curve" smooth="yes"/>
      <point x="236" y="350" type="line"/>
      <point x="271" y="429"/>
      <point x="320" y="536"/>
      <point x="430" y="536" type="curve" smooth="yes"/>
      <point x="479" y="536"/>
      <point x="514" y="522"/>
      <point x="514" y="475" type="curve" smooth="yes"/>
      <point x="514" y="438"/>
      <point x="492" y="410"/>
      <point x="492" y="379" type="curve" smooth="yes"/>
      <point x="492" y="349"/>
      <point x="542" y="336"/>
      <point x="558" y="362" type="curve" smooth="yes"/>
      <point x="576" y="390"/>
      <point x="595" y="434"/>
      <point x="595" y="480" type="curve" smooth="yes"/>
      <point x="595" y="571"/>
      <point x="536" y="612"/>
      <point x="442" y="612" type="curve" smooth="yes"/>
      <point x="293" y="612"/>
      <point x="191" y="479"/>
      <point x="134" y="350" type="curve"/>
      <point x="91" y="350" type="line" smooth="yes"/>
      <point x="70" y="350"/>
      <point x="58" y="342"/>
      <point x="58" y="322" type="curve" smooth="yes"/>
      <point x="58" y="299"/>
      <point x="68" y="284"/>
      <point x="91" y="284" type="curve" smooth="yes"/>
      <point x="110" y="284" type="line"/>
      <point x="106" y="270"/>
      <point x="103" y="256"/>
      <point x="100" y="241" type="curve"/>
      <point x="69" y="241" type="line" smooth="yes"/>
      <point x="48" y="241"/>
      <point x="36" y="232"/>
      <point x="36" y="212" type="curve" smooth="yes"/>
      <point x="36" y="190"/>
      <point x="45" y="175"/>
      <point x="69" y="175" type="curve" smooth="yes"/>
      <point x="91" y="175" type="line"/>
      <point x="91" y="165" type="line"/>
      <point x="91" y="25"/>
      <point x="167" y="-55"/>
    </contour>
  </outline>
</glyph>
<glyph name="trademark" format="1">
  <advance width="932"/>
  <unicode hex="2122"/>
  <outline>
    <contour>
      <point x="702" y="345" type="curve" smooth="yes"/>
      <point x="672" y="356"/>
      <point x="730" y="467"/>
      <point x="740" y="532" type="curve" smooth="yes"/>
      <point x="746" y="575"/>
      <point x="716" y="604"/>
      <point x="672" y="604" type="curve" smooth="yes"/>
      <point x="628" y="604"/>
      <point x="601" y="568"/>
      <point x="581" y="524" type="curve"/>
      <point x="586" y="566"/>
      <point x="566" y="610"/>
      <point x="516" y="604" type="curve" smooth="yes"/>
      <point x="475" y="599"/>
      <point x="429" y="546"/>
      <point x="398" y="479" type="curve"/>
      <point x="407" y="508"/>
      <point x="422" y="556"/>
      <point x="422" y="568" type="curve" smooth="yes"/>
      <point x="422" y="602"/>
      <point x="342" y="604"/>
      <point x="291" y="604" type="curve" smooth="yes"/>
      <point x="197" y="604"/>
      <point x="92" y="597"/>
      <point x="92" y="504" type="curve" smooth="yes"/>
      <point x="92" y="485"/>
      <point x="102" y="472"/>
      <point x="122" y="472" type="curve" smooth="yes"/>
      <point x="145" y="472"/>
      <point x="162" y="483"/>
      <point x="162" y="504" type="curve" smooth="yes"/>
      <point x="162" y="544"/>
      <point x="197" y="552"/>
      <point x="250" y="552" type="curve"/>
      <point x="184" y="352" type="line" smooth="yes"/>
      <point x="174" y="323"/>
      <point x="182" y="307"/>
      <point x="203" y="304" type="curve" smooth="yes"/>
      <point x="226" y="302"/>
      <point x="232" y="317"/>
      <point x="239" y="342" type="curve" smooth="yes"/>
      <point x="255" y="407"/>
      <point x="281" y="485"/>
      <point x="299" y="552" type="curve"/>
      <point x="319" y="552"/>
      <point x="354" y="551"/>
      <point x="374" y="547" type="curve"/>
      <point x="374" y="547"/>
      <point x="330" y="414"/>
      <point x="313" y="339" type="curve" smooth="yes"/>
      <point x="308" y="317"/>
      <point x="329" y="301"/>
      <point x="351" y="301" type="curve" smooth="yes"/>
      <point x="369" y="301"/>
      <point x="376" y="318"/>
      <point x="382" y="333" type="curve" smooth="yes"/>
      <point x="394" y="361"/>
      <point x="406" y="394"/>
      <point x="417" y="424" type="curve" smooth="yes"/>
      <point x="442" y="489"/>
      <point x="474" y="533"/>
      <point x="499" y="540" type="curve" smooth="yes"/>
      <point x="520" y="545"/>
      <point x="527" y="525"/>
      <point x="520" y="486" type="curve" smooth="yes"/>
      <point x="512" y="444"/>
      <point x="496" y="392"/>
      <point x="482" y="338" type="curve" smooth="yes"/>
      <point x="478" y="319"/>
      <point x="491" y="301"/>
      <point x="521" y="301" type="curve" smooth="yes"/>
      <point x="536" y="301"/>
      <point x="544" y="311"/>
      <point x="549" y="326" type="curve" smooth="yes"/>
      <point x="574" y="408"/>
      <point x="601" y="540"/>
      <point x="659" y="540" type="curve" smooth="yes"/>
      <point x="675" y="540"/>
      <point x="683" y="526"/>
      <point x="679" y="510" type="curve" smooth="yes"/>
      <point x="665" y="457"/>
      <point x="646" y="405"/>
      <point x="639" y="357" type="curve" smooth="yes"/>
      <point x="634" y="325"/>
      <point x="655" y="303"/>
      <point x="687" y="297" type="curve" smooth="yes"/>
      <point x="731" y="290"/>
      <point x="770" y="321"/>
      <point x="795" y="362" type="curve" smooth="yes"/>
      <point x="818" y="400"/>
      <point x="772" y="414"/>
      <point x="760" y="394" type="curve" smooth="yes"/>
      <point x="745" y="370"/>
      <point x="723" y="338"/>
    </contour>
  </outline>
</glyph>
<glyph name="Omega" format="1">
  <advance width="879"/>
  <unicode hex="2126"/>
  <outline>
    <contour>
      <point x="672" y="43" type="curve"/>
      <point x="936" y="206"/>
      <point x="901" y="693"/>
      <point x="522" y="693" type="curve" smooth="yes"/>
      <point x="152" y="693"/>
      <point x="39" y="226"/>
      <point x="259" y="53" type="curve"/>
      <point x="217" y="54"/>
      <point x="188" y="55"/>
      <point x="163" y="54" type="curve" smooth="yes"/>
      <point x="144" y="54"/>
      <point x="138" y="34"/>
      <point x="141" y="20" type="curve" smooth="yes"/>
      <point x="143" y="9"/>
      <point x="160" y="-12"/>
      <point x="180" y="-13" type="curve" smooth="yes"/>
      <point x="243" y="-15"/>
      <point x="296" y="-11"/>
      <point x="440" y="-9" type="curve"/>
      <point x="437" y="46" type="line"/>
      <point x="95" y="79"/>
      <point x="186" y="621"/>
      <point x="520" y="621" type="curve" smooth="yes"/>
      <point x="852" y="621"/>
      <point x="854" y="80"/>
      <point x="507" y="46" type="curve"/>
      <point x="498" y="-8" type="line"/>
      <point x="610" y="-23"/>
      <point x="698" y="-28"/>
      <point x="763" y="-20" type="curve" smooth="yes"/>
      <point x="782" y="-17"/>
      <point x="801" y="1"/>
      <point x="804" y="12" type="curve" smooth="yes"/>
      <point x="808" y="28"/>
      <point x="805" y="49"/>
      <point x="783" y="47" type="curve" smooth="yes"/>
      <point x="754" y="44"/>
      <point x="719" y="42"/>
    </contour>
  </outline>
</glyph>
<glyph name="partialdiff" format="1">
  <advance width="372"/>
  <unicode hex="2202"/>
  <outline>
    <contour>
      <point x="22" y="52"/>
      <point x="86" y="0"/>
      <point x="174" y="0" type="curve" smooth="yes"/>
      <point x="310" y="0"/>
      <point x="385" y="156"/>
      <point x="385" y="328" type="curve" smooth="yes"/>
      <point x="385" y="445"/>
      <point x="323" y="591"/>
      <point x="168" y="591" type="curve" smooth="yes"/>
      <point x="140" y="591"/>
      <point x="118" y="580"/>
      <point x="118" y="553" type="curve" smooth="yes"/>
      <point x="118" y="536"/>
      <point x="128" y="515"/>
      <point x="146" y="515" type="curve" smooth="yes"/>
      <point x="244" y="515"/>
      <point x="298" y="451"/>
      <point x="298" y="329" type="curve"/>
      <point x="275" y="335"/>
      <point x="251" y="339"/>
      <point x="221" y="339" type="curve" smooth="yes"/>
      <point x="134" y="339"/>
      <point x="22" y="258"/>
      <point x="22" y="142" type="curve" smooth="yes"/>
    </contour>
    <contour>
      <point x="279" y="191"/>
      <point x="250" y="65"/>
      <point x="185" y="65" type="curve" smooth="yes"/>
      <point x="132" y="65"/>
      <point x="99" y="91"/>
      <point x="99" y="142" type="curve" smooth="yes"/>
      <point x="99" y="208"/>
      <point x="161" y="262"/>
      <point x="226" y="262" type="curve" smooth="yes"/>
      <point x="253" y="262"/>
      <point x="272" y="257"/>
      <point x="290" y="249" type="curve"/>
    </contour>
  </outline>
</glyph>
<glyph name="Delta" format="1">
  <advance width="708"/>
  <unicode hex="2206"/>
  <outline>
    <contour>
      <point x="147" y="0" type="curve" smooth="yes"/>
      <point x="621" y="0" type="line" smooth="yes"/>
      <point x="654" y="0"/>
      <point x="667" y="19"/>
      <point x="667" y="49" type="curve"/>
      <point x="479" y="496" type="line" smooth="yes"/>
      <point x="464" y="530"/>
      <point x="421" y="545"/>
      <point x="396" y="503" type="curve" smooth="yes"/>
      <point x="325" y="387"/>
      <point x="254" y="270"/>
      <point x="198" y="180" type="curve" smooth="yes"/>
      <point x="153" y="108"/>
      <point x="119" y="58"/>
      <point x="112" y="41" type="curve"/>
      <point x="111" y="18"/>
      <point x="124" y="0"/>
    </contour>
    <contour>
      <point x="215" y="79" type="line"/>
      <point x="254" y="139"/>
      <point x="361" y="318"/>
      <point x="423" y="422" type="curve"/>
      <point x="567" y="79" type="line"/>
    </contour>
  </outline>
</glyph>
<glyph name="summation" format="1">
  <advance width="771"/>
  <unicode hex="2211"/>
  <outline>
    <contour>
      <point x="396" y="651" type="curve" smooth="yes"/>
      <point x="305" y="651"/>
      <point x="245" y="642"/>
      <point x="188" y="620" type="curve" smooth="yes"/>
      <point x="147" y="604"/>
      <point x="165" y="539"/>
      <point x="213" y="556" type="curve"/>
      <point x="232" y="556"/>
      <point x="250" y="568"/>
      <point x="273" y="572" type="curve"/>
      <point x="424" y="316" type="line"/>
      <point x="237" y="150"/>
      <point x="117" y="58"/>
      <point x="121" y="22" type="curve" smooth="yes"/>
      <point x="125" y="-10"/>
      <point x="167" y="-18"/>
      <point x="207" y="25" type="curve"/>
      <point x="352" y="-22"/>
      <point x="507" y="-82"/>
      <point x="717" y="11" type="curve"/>
      <point x="750" y="23"/>
      <point x="726" y="87"/>
      <point x="693" y="73" type="curve" smooth="yes"/>
      <point x="579" y="26"/>
      <point x="473" y="1"/>
      <point x="253" y="84" type="curve"/>
      <point x="319" y="149"/>
      <point x="413" y="213"/>
      <point x="513" y="304" type="curve"/>
      <point x="351" y="580" type="line"/>
      <point x="369" y="581"/>
      <point x="389" y="581"/>
      <point x="411" y="581" type="curve" smooth="yes"/>
      <point x="481" y="581"/>
      <point x="601" y="576"/>
      <point x="669" y="578" type="curve" smooth="yes"/>
      <point x="749" y="580"/>
      <point x="756" y="593"/>
      <point x="756" y="613" type="curve"/>
      <point x="756" y="640"/>
      <point x="738" y="654"/>
      <point x="717" y="652" type="curve" smooth="yes"/>
      <point x="587" y="642"/>
      <point x="519" y="651"/>
    </contour>
  </outline>
</glyph>
<glyph name="radical" format="1">
  <advance width="863.028"/>
  <unicode hex="221A"/>
  <outline>
    <contour>
      <point x="429" y="181" type="line" smooth="yes"/>
      <point x="382" y="71"/>
      <point x="360" y="58"/>
      <point x="345" y="58" type="curve" smooth="yes"/>
      <point x="331" y="58"/>
      <point x="283" y="99"/>
      <point x="336" y="293" type="curve" smooth="yes"/>
      <point x="342" y="316"/>
      <point x="314" y="333"/>
      <point x="290" y="328" type="curve"/>
      <point x="246" y="324"/>
      <point x="190" y="309"/>
      <point x="161" y="298" type="curve" smooth="yes"/>
      <point x="128" y="285"/>
      <point x="129" y="263"/>
      <point x="133" y="249" type="curve" smooth="yes"/>
      <point x="137" y="233"/>
      <point x="152" y="220"/>
      <point x="170" y="228" type="curve"/>
      <point x="198" y="242"/>
      <point x="221" y="252"/>
      <point x="252" y="262" type="curve"/>
      <point x="208" y="81"/>
      <point x="265" y="-11"/>
      <point x="346" y="-3" type="curve" smooth="yes"/>
      <point x="406" y="3"/>
      <point x="446" y="60"/>
      <point x="495" y="170" type="curve" smooth="yes"/>
      <point x="668" y="558" type="line" smooth="yes"/>
      <point x="686" y="601"/>
      <point x="623" y="635"/>
      <point x="597" y="576" type="curve" smooth="yes"/>
    </contour>
  </outline>
</glyph>
<glyph name="uniFB00" format="1">
  <advance width="498"/>
  <unicode hex="FB00"/>
  <outline>
    <contour>
      <point x="99" y="-207" type="curve" smooth="yes"/>
      <point x="188" y="-207"/>
      <point x="223" y="-109"/>
      <point x="223" y="-41" type="curve" smooth="yes"/>
      <point x="223" y="34"/>
      <point x="201" y="96"/>
      <point x="182" y="146" type="curve"/>
      <point x="211" y="146"/>
      <point x="246" y="148"/>
      <point x="273" y="157" type="curve"/>
      <point x="271" y="111"/>
      <point x="270" y="64"/>
      <point x="270" y="18" type="curve" smooth="yes"/>
      <point x="270" y="-65"/>
      <point x="283" y="-155"/>
      <point x="354" y="-155" type="curve" smooth="yes"/>
      <point x="436" y="-155"/>
      <point x="451" y="-78"/>
      <point x="451" y="-27" type="curve" smooth="yes"/>
      <point x="451" y="42"/>
      <point x="427" y="100"/>
      <point x="407" y="146" type="curve"/>
      <point x="484" y="149"/>
      <point x="589" y="157"/>
      <point x="589" y="247" type="curve" smooth="yes"/>
      <point x="589" y="260"/>
      <point x="584" y="271"/>
      <point x="577" y="271" type="curve" smooth="yes"/>
      <point x="575" y="271"/>
      <point x="572" y="271"/>
      <point x="570" y="269" type="curve" smooth="yes"/>
      <point x="504" y="220"/>
      <point x="442" y="186"/>
      <point x="383" y="206" type="curve"/>
      <point x="454" y="273"/>
      <point x="574" y="393"/>
      <point x="574" y="504" type="curve" smooth="yes"/>
      <point x="574" y="551"/>
      <point x="548" y="583"/>
      <point x="505" y="583" type="curve" smooth="yes"/>
      <point x="375" y="583"/>
      <point x="307" y="385"/>
      <point x="278" y="214" type="curve"/>
      <point x="244" y="203"/>
      <point x="195" y="193"/>
      <point x="159" y="206" type="curve"/>
      <point x="226" y="285"/>
      <point x="342" y="425"/>
      <point x="342" y="555" type="curve" smooth="yes"/>
      <point x="342" y="603"/>
      <point x="317" y="634"/>
      <point x="274" y="634" type="curve" smooth="yes"/>
      <point x="84" y="634"/>
      <point x="18" y="178"/>
      <point x="18" y="-13" type="curve" smooth="yes"/>
      <point x="18" y="-95"/>
      <point x="27" y="-207"/>
    </contour>
    <contour>
      <point x="110" y="-129" type="curve" smooth="yes"/>
      <point x="97" y="-129"/>
      <point x="95" y="-64"/>
      <point x="95" y="-16" type="curve" smooth="yes"/>
      <point x="95" y="49"/>
      <point x="102" y="113"/>
      <point x="104" y="178" type="curve"/>
      <point x="129" y="131"/>
      <point x="151" y="64"/>
      <point x="151" y="-20" type="curve" smooth="yes"/>
      <point x="151" y="-21" type="line" smooth="yes"/>
      <point x="151" y="-59"/>
      <point x="150" y="-129"/>
    </contour>
    <contour>
      <point x="355" y="-78" type="curve" smooth="yes"/>
      <point x="335" y="-78"/>
      <point x="332" y="18"/>
      <point x="332" y="93" type="curve" smooth="yes"/>
      <point x="332" y="126"/>
      <point x="333" y="145"/>
      <point x="332" y="167" type="curve"/>
      <point x="342" y="162" type="line"/>
      <point x="358" y="124"/>
      <point x="385" y="33"/>
      <point x="385" y="-22" type="curve" smooth="yes"/>
      <point x="385" y="-54"/>
      <point x="377" y="-78"/>
    </contour>
    <contour>
      <point x="127" y="226" type="curve"/>
      <point x="119" y="234" type="line"/>
      <point x="128" y="265"/>
      <point x="183" y="558"/>
      <point x="261" y="558" type="curve" smooth="yes"/>
      <point x="275" y="558"/>
      <point x="278" y="541"/>
      <point x="278" y="522" type="curve" smooth="yes"/>
      <point x="278" y="441"/>
      <point x="183" y="296"/>
    </contour>
    <contour>
      <point x="344" y="234" type="curve"/>
      <point x="353" y="260"/>
      <point x="410" y="506"/>
      <point x="489" y="506" type="curve" smooth="yes"/>
      <point x="504" y="506"/>
      <point x="510" y="497"/>
      <point x="510" y="483" type="curve" smooth="yes"/>
      <point x="510" y="419"/>
      <point x="395" y="271"/>
    </contour>
  </outline>
</glyph>
<glyph name="caron.alt" format="1">
  <advance width="600"/>
  <outline>
    <contour>
      <point x="92" y="438" type="curve" smooth="yes"/>
      <point x="84" y="425"/>
      <point x="96" y="414"/>
      <point x="106" y="417" type="curve" smooth="yes"/>
      <point x="175" y="437"/>
      <point x="256" y="540"/>
      <point x="260" y="569" type="curve" smooth="yes"/>
      <point x="264" y="597"/>
      <point x="241" y="610"/>
      <point x="219" y="610" type="curve" smooth="yes"/>
      <point x="206" y="610"/>
      <point x="191" y="606"/>
      <point x="184" y="591" type="curve" smooth="yes"/>
      <point x="145" y="498"/>
      <point x="94" y="442"/>
    </contour>
    <contour>
      <point x="89" y="339" type="move" name="_caron.alt"/>
    </contour>
  </outline>
</glyph>
